<svg xmlns="http://www.w3.org/2000/svg" width="900" height="360" viewBox="0 0 900 360" role="img" aria-labelledby="title desc">
<title id="title">ITL p95 vs N</title>
<desc id="desc">Line chart comparing inter-token latency p95 by concurrency level for vLLM AWQ and llama.cpp Q4_K_XL.</desc>
<rect width="100%" height="100%" fill="#ffffff"/>
<text x="78" y="24" font-family="system-ui, sans-serif" font-size="18" font-weight="700" fill="#111">ITL p95 vs N</text>
<line x1="78" y1="296.00" x2="872" y2="296.00" stroke="#e6e6e6"/>
<text x="70" y="300.00" font-family="system-ui, sans-serif" font-size="12" text-anchor="end" fill="#333">0</text>
<line x1="78" y1="246.40" x2="872" y2="246.40" stroke="#e6e6e6"/>
<text x="70" y="250.40" font-family="system-ui, sans-serif" font-size="12" text-anchor="end" fill="#333">0.16</text>
<line x1="78" y1="196.80" x2="872" y2="196.80" stroke="#e6e6e6"/>
<text x="70" y="200.80" font-family="system-ui, sans-serif" font-size="12" text-anchor="end" fill="#333">0.32</text>
<line x1="78" y1="147.20" x2="872" y2="147.20" stroke="#e6e6e6"/>
<text x="70" y="151.20" font-family="system-ui, sans-serif" font-size="12" text-anchor="end" fill="#333">0.48</text>
<line x1="78" y1="97.60" x2="872" y2="97.60" stroke="#e6e6e6"/>
<text x="70" y="101.60" font-family="system-ui, sans-serif" font-size="12" text-anchor="end" fill="#333">0.64</text>
<line x1="78" y1="48.00" x2="872" y2="48.00" stroke="#e6e6e6"/>
<text x="70" y="52.00" font-family="system-ui, sans-serif" font-size="12" text-anchor="end" fill="#333">0.80</text>
<line x1="78.00" y1="48" x2="78.00" y2="296" stroke="#f0f0f0"/>
<text x="78.00" y="320" font-family="system-ui, sans-serif" font-size="12" text-anchor="middle" fill="#333">1</text>
<line x1="130.93" y1="48" x2="130.93" y2="296" stroke="#f0f0f0"/>
<text x="130.93" y="320" font-family="system-ui, sans-serif" font-size="12" text-anchor="middle" fill="#333">2</text>
<line x1="236.80" y1="48" x2="236.80" y2="296" stroke="#f0f0f0"/>
<text x="236.80" y="320" font-family="system-ui, sans-serif" font-size="12" text-anchor="middle" fill="#333">4</text>
<line x1="342.67" y1="48" x2="342.67" y2="296" stroke="#f0f0f0"/>
<text x="342.67" y="320" font-family="system-ui, sans-serif" font-size="12" text-anchor="middle" fill="#333">6</text>
<line x1="448.53" y1="48" x2="448.53" y2="296" stroke="#f0f0f0"/>
<text x="448.53" y="320" font-family="system-ui, sans-serif" font-size="12" text-anchor="middle" fill="#333">8</text>
<line x1="554.40" y1="48" x2="554.40" y2="296" stroke="#f0f0f0"/>
<text x="554.40" y="320" font-family="system-ui, sans-serif" font-size="12" text-anchor="middle" fill="#333">10</text>
<line x1="660.27" y1="48" x2="660.27" y2="296" stroke="#f0f0f0"/>
<text x="660.27" y="320" font-family="system-ui, sans-serif" font-size="12" text-anchor="middle" fill="#333">12</text>
<line x1="766.13" y1="48" x2="766.13" y2="296" stroke="#f0f0f0"/>
<text x="766.13" y="320" font-family="system-ui, sans-serif" font-size="12" text-anchor="middle" fill="#333">14</text>
<line x1="872.00" y1="48" x2="872.00" y2="296" stroke="#f0f0f0"/>
<text x="872.00" y="320" font-family="system-ui, sans-serif" font-size="12" text-anchor="middle" fill="#333">16</text>
<line x1="78" y1="296" x2="872" y2="296" stroke="#777"/>
<line x1="78" y1="48" x2="78" y2="296" stroke="#777"/>
<text x="475.00" y="342" font-family="system-ui, sans-serif" font-size="13" text-anchor="middle" fill="#111">N (concurrent agent sessions)</text>
<text transform="translate(18 172.00) rotate(-90)" font-family="system-ui, sans-serif" font-size="13" text-anchor="middle" fill="#111">ITL p95 (seconds)</text>
<polyline fill="none" stroke="#005f73" stroke-width="3" points="78.00,278.37 130.93,264.96 236.80,252.89 342.67,240.81 448.53,229.67 554.40,227.39 660.27,216.77 766.13,213.80 872.00,211.44"/>
<circle cx="78.00" cy="278.37" r="4" fill="#005f73"/>
<circle cx="130.93" cy="264.96" r="4" fill="#005f73"/>
<circle cx="236.80" cy="252.89" r="4" fill="#005f73"/>
<circle cx="342.67" cy="240.81" r="4" fill="#005f73"/>
<circle cx="448.53" cy="229.67" r="4" fill="#005f73"/>
<circle cx="554.40" cy="227.39" r="4" fill="#005f73"/>
<circle cx="660.27" cy="216.77" r="4" fill="#005f73"/>
<circle cx="766.13" cy="213.80" r="4" fill="#005f73"/>
<circle cx="872.00" cy="211.44" r="4" fill="#005f73"/>
<rect x="682" y="38" width="12" height="12" fill="#005f73"/>
<text x="700" y="48" font-family="system-ui, sans-serif" font-size="13" fill="#111">vllm-awq</text>
<polyline fill="none" stroke="#9b2226" stroke-width="3" points="78.00,289.54 130.93,287.57 236.80,283.05 342.67,267.37 448.53,275.50 554.40,255.32 660.27,247.83 766.13,68.82 872.00,135.97"/>
<circle cx="78.00" cy="289.54" r="4" fill="#9b2226"/>
<circle cx="130.93" cy="287.57" r="4" fill="#9b2226"/>
<circle cx="236.80" cy="283.05" r="4" fill="#9b2226"/>
<circle cx="342.67" cy="267.37" r="4" fill="#9b2226"/>
<circle cx="448.53" cy="275.50" r="4" fill="#9b2226"/>
<circle cx="554.40" cy="255.32" r="4" fill="#9b2226"/>
<circle cx="660.27" cy="247.83" r="4" fill="#9b2226"/>
<circle cx="766.13" cy="68.82" r="4" fill="#9b2226"/>
<circle cx="872.00" cy="135.97" r="4" fill="#9b2226"/>
<rect x="682" y="56" width="12" height="12" fill="#9b2226"/>
<text x="700" y="66" font-family="system-ui, sans-serif" font-size="13" fill="#111">llamacpp-q4kxl</text>
</svg>
